# xmcd CD database file
#
# Track frame offsets:
#	182
#	24330
#	52225
#	79042
#	106680
#	130767
#	151600
#	171962
#	193367
#	213817
#	238852
#	259690
#	274882
#	290855
#
# Disc length: 4439 seconds
#
# Revision: 0
# Processed by: cddbd v1.4PL0 Copyright (c) Steve Scherf et al.
# Submitted via: CDex 1.50beta10
#
DISCID=c711550e
DTITLE=Johnny Hammond Smith - Gears (1-6) - Forever taurus (7-14)
DYEAR=1975
DGENRE=Jazz
TTITLE0=Tell me what to do
TTITLE1=Los conquistadores chocolates
TTITLE2=Lost on 23rd street
TTITLE3=Fantasy
TTITLE4=Shifting gears
TTITLE5=Can't we smile
TTITLE6=Old devil moon
TTITLE7=Countdown
TTITLE8=Walk in sunshine
TTITLE9=Ghetto samba
TTITLE10=Cosmic voyager
TTITLE11=My ship
TTITLE12=Winds of change
TTITLE13=Forever taurus
EXTD=YEAR: 1975
EXTT0=
EXTT1=
EXTT2=
EXTT3=
EXTT4=
EXTT5=
EXTT6=
EXTT7=
EXTT8=
EXTT9=
EXTT10=
EXTT11=
EXTT12=
EXTT13=
PLAYORDER=
